<svg id="Layer_1" height="512" viewBox="0 0 256 256" width="512" xmlns="http://www.w3.org/2000/svg"><g><path d="m17.187 173.641v50.861h22.993c5.532 0 10.017-4.485 10.017-10.017v-60.693c0-5.532-4.485-10.017-10.017-10.017h-22.993v14.96z" fill="#ef6d7a"/><path d="m40.18 226.002h-22.993c-.828 0-1.5-.671-1.5-1.5v-50.861c0-.829.672-1.5 1.5-1.5s1.5.671 1.5 1.5v49.361h21.493c4.696 0 8.518-3.821 8.518-8.518v-60.692c0-4.697-3.821-8.518-8.518-8.518h-21.493v13.46c0 .829-.672 1.5-1.5 1.5s-1.5-.671-1.5-1.5v-14.96c0-.829.672-1.5 1.5-1.5h22.993c6.351 0 11.518 5.167 11.518 11.518v60.692c-.001 6.351-5.168 11.518-11.518 11.518z" fill="#3a312a"/><path d="m195.31 75.89h-2.92c-1.72-7.49-4.71-14.51-8.73-20.79l2.15-2.15c2.48-2.48 2.48-6.51 0-8.99l-11.44-11.43c-2.48-2.49-6.5-2.49-8.98 0l-2.24 2.23c-6.27-3.95-13.25-6.88-20.71-8.54v-3.2c0-3.51-2.84-6.35-6.35-6.35h-16.18c-3.51 0-6.35 2.84-6.35 6.35v3.2c-7.46 1.66-14.44 4.59-20.71 8.54l-2.24-2.23c-2.48-2.49-6.5-2.49-8.98 0l-11.44 11.43c-2.48 2.48-2.48 6.51 0 8.99l2.15 2.15c-4.02 6.28-7.01 13.3-8.73 20.79h-2.92c-3.51 0-6.36 2.85-6.36 6.36v16.17c0 3.51 2.85 6.35 6.36 6.35h2.77c1.65 7.59 4.6 14.7 8.62 21.07l-1.89 1.88c-2.48 2.48-2.48 6.5 0 8.98l11.44 11.44c2.48 2.48 6.5 2.48 8.98 0l1.81-1.8c6.38 4.09 13.51 7.11 21.14 8.81v2.5c0 3.51 2.84 6.35 6.35 6.35h16.18c3.51 0 6.35-2.84 6.35-6.35v-2.5c7.63-1.7 14.76-4.72 21.14-8.81l1.81 1.8c2.48 2.48 6.5 2.48 8.98 0l11.44-11.44c2.48-2.48 2.48-6.5 0-8.98l-1.89-1.88c4.02-6.37 6.97-13.48 8.62-21.07h2.77c3.51 0 6.36-2.84 6.36-6.35v-16.17c0-3.51-2.85-6.36-6.36-6.36zm-67.31 47.47c-18.24 0-33.03-14.79-33.03-33.03s14.79-33.02 33.03-33.02 33.03 14.78 33.03 33.02-14.79 33.03-33.03 33.03z" fill="#8bbed5"/><path d="m136.088 165.5h-16.176c-4.329 0-7.852-3.523-7.852-7.852v-1.309c-6.876-1.662-13.401-4.38-19.43-8.093l-.958.958c-3.061 3.062-8.042 3.061-11.104.001l-11.438-11.438c-3.062-3.062-3.062-8.043 0-11.105l1.045-1.045c-3.643-6.015-6.3-12.511-7.914-19.342h-1.576c-4.329 0-7.852-3.522-7.852-7.853v-16.176c0-4.33 3.522-7.852 7.852-7.852h1.742c1.67-6.747 4.36-13.154 8.011-19.079l-1.308-1.308c-3.062-3.061-3.062-8.042 0-11.104l11.438-11.438c1.483-1.483 3.455-2.3 5.553-2.3s4.069.817 5.552 2.3l1.396 1.395c5.912-3.58 12.29-6.21 18.992-7.831v-2.009c0-4.33 3.522-7.852 7.852-7.852h.573c.828 0 1.5.671 1.5 1.5s-.672 1.5-1.5 1.5h-.573c-2.675 0-4.852 2.177-4.852 4.852v3.2c0 .703-.487 1.311-1.174 1.464-7.185 1.603-13.994 4.41-20.24 8.344-.596.374-1.364.286-1.86-.208l-2.234-2.233c-.917-.917-2.135-1.422-3.431-1.422s-2.515.505-3.432 1.421l-11.438 11.437c-1.892 1.892-1.892 4.971 0 6.862l2.153 2.153c.498.499.583 1.276.202 1.87-4.008 6.253-6.879 13.09-8.533 20.319-.155.682-.763 1.165-1.462 1.165h-2.927c-2.675 0-4.852 2.177-4.852 4.852v16.175c0 2.676 2.177 4.853 4.852 4.853h2.774c.706 0 1.315.492 1.466 1.181 1.59 7.313 4.422 14.237 8.419 20.583.373.593.286 1.365-.209 1.86l-1.884 1.884c-1.892 1.892-1.892 4.971 0 6.863l11.438 11.438c1.892 1.891 4.969 1.893 6.862 0l1.804-1.804c.497-.497 1.274-.584 1.87-.203 6.353 4.071 13.305 6.966 20.661 8.607.686.153 1.174.761 1.174 1.464v2.501c0 2.676 2.177 4.852 4.852 4.852h16.176c2.675 0 4.852-2.177 4.852-4.852v-2.501c0-.703.487-1.311 1.174-1.464 7.356-1.641 14.309-4.537 20.661-8.607.597-.38 1.374-.294 1.87.203l1.804 1.804c1.892 1.892 4.971 1.891 6.862-.001l11.438-11.437c1.892-1.892 1.892-4.971 0-6.863l-1.885-1.884c-.495-.495-.582-1.267-.209-1.86 3.997-6.345 6.83-13.27 8.42-20.583.15-.689.76-1.181 1.466-1.181h2.774c2.676 0 4.852-2.177 4.852-4.853v-16.173c0-2.675-2.177-4.852-4.852-4.852h-2.927c-.699 0-1.307-.483-1.462-1.165-1.653-7.226-4.523-14.063-8.532-20.32-.381-.593-.296-1.372.202-1.87l2.153-2.153c1.892-1.892 1.892-4.97 0-6.862l-11.438-11.438c-.917-.916-2.136-1.421-3.432-1.421s-2.514.505-3.431 1.421l-2.234 2.234c-.496.494-1.266.582-1.86.208-6.246-3.934-13.056-6.741-20.24-8.344-.686-.153-1.174-.761-1.174-1.464v-3.2c0-2.676-2.177-4.852-4.852-4.852h-1.239c-.828 0-1.5-.671-1.5-1.5s.672-1.5 1.5-1.5h1.239c4.329 0 7.852 3.522 7.852 7.852v2.009c6.702 1.621 13.08 4.25 18.992 7.831l1.396-1.395c1.482-1.483 3.454-2.3 5.552-2.3s4.069.817 5.553 2.3l11.438 11.438c3.062 3.062 3.062 8.043 0 11.104l-1.308 1.308c3.651 5.928 6.341 12.335 8.01 19.079h1.742c4.33 0 7.852 3.523 7.852 7.852v16.175c0 4.33-3.522 7.853-7.852 7.853h-1.575c-1.614 6.832-4.272 13.327-7.914 19.341l1.045 1.045c3.062 3.062 3.062 8.043 0 11.105l-11.438 11.438c-3.063 3.061-8.044 3.062-11.104 0l-.958-.958c-6.028 3.713-12.554 6.431-19.43 8.093v1.309c-.002 4.33-3.524 7.853-7.853 7.853zm-8.088-40.641c-19.037 0-34.525-15.488-34.525-34.525s15.488-34.525 34.525-34.525 34.525 15.488 34.525 34.525-15.488 34.525-34.525 34.525zm0-66.05c-17.383 0-31.525 14.142-31.525 31.525s14.143 31.525 31.525 31.525 31.525-14.142 31.525-31.525-14.142-31.525-31.525-31.525z" fill="#3a312a"/><path d="m158.466 141.506c1.276 21.377 19.014 38.321 40.712 38.321 22.527 0 40.788-18.262 40.788-40.788 0-22.527-18.262-40.788-40.788-40.788-21.516 0-39.14 16.661-40.678 37.785z" fill="#d7e057"/><path d="m199.178 181.326c-22.339 0-40.879-17.452-42.209-39.731-.002-.033-.003-.066-.003-.099l.034-5.471c1.604-22.067 20.128-39.275 42.178-39.275 23.317 0 42.288 18.97 42.288 42.288s-18.971 42.288-42.288 42.288zm-39.212-39.861c1.261 20.674 18.475 36.861 39.212 36.861 21.663 0 39.288-17.624 39.288-39.288s-17.625-39.288-39.288-39.288c-20.485 0-37.695 15.986-39.182 36.394z" fill="#3a312a"/><path d="m190.874 156.448c-.167 0-.334-.009-.502-.028-1.294-.143-2.466-.833-3.218-1.897l-11.895-16.795c-1.456-2.055-.97-4.9 1.085-6.355 2.053-1.455 4.899-.97 6.355 1.086l8.929 12.608 25.644-23.134c1.87-1.687 4.753-1.538 6.44.331s1.538 4.752-.331 6.439l-29.453 26.57c-.842.76-1.932 1.175-3.054 1.175z" fill="#87796f"/><path d="m190.874 157.948c-.221 0-.44-.012-.662-.036-1.725-.191-3.283-1.11-4.283-2.521l-11.893-16.795c-.937-1.32-1.302-2.926-1.029-4.522.273-1.595 1.15-2.989 2.472-3.924 1.32-.935 2.925-1.3 4.521-1.028 1.597.272 2.99 1.15 3.926 2.471l7.953 11.23 24.391-22.003c1.202-1.084 2.764-1.628 4.371-1.552 1.616.083 3.104.791 4.188 1.993 2.237 2.48 2.039 6.318-.441 8.558l-29.453 26.57c-1.118 1.005-2.559 1.559-4.061 1.559zm-11.901-25.914c-.628 0-1.238.193-1.761.563-.668.473-1.111 1.177-1.248 1.982-.138.805.046 1.616.519 2.283l11.895 16.795c.505.712 1.292 1.176 2.16 1.273.838.088 1.739-.186 2.386-.77l29.453-26.57c1.253-1.13 1.352-3.068.224-4.32-.548-.607-1.299-.964-2.115-1.006-.81-.048-1.601.236-2.207.784l-25.643 23.134c-.319.287-.747.427-1.17.377-.426-.047-.812-.274-1.059-.624l-8.93-12.608c-.473-.667-1.177-1.11-1.982-1.248-.176-.031-.35-.045-.522-.045z" fill="#3a312a"/><path d="m47.724 26.345s3.408 12.659 13.222 13.246c0 0-13.1 4.525-13.321 14.202 0 0-2.578-13.572-12.925-14.059 0 0 12.051-1.825 13.024-13.389z" fill="#d6df58"/><path d="m47.624 55.293c-.713 0-1.335-.506-1.473-1.217-.024-.124-2.494-12.417-11.521-12.842-.771-.037-1.388-.651-1.428-1.421s.511-1.445 1.274-1.56c.441-.069 10.894-1.817 11.754-12.033.062-.725.635-1.301 1.359-1.367.729-.061 1.393.399 1.584 1.102.031.116 3.259 11.626 11.863 12.141.714.043 1.298.584 1.396 1.292s-.318 1.388-.994 1.623c-.121.042-12.118 4.31-12.313 12.819-.018.767-.611 1.396-1.375 1.459-.042.002-.084.004-.126.004zm-7.74-15.73c3.878 1.969 6.229 5.746 7.586 8.877 2.026-4.021 5.942-6.787 8.949-8.427-4.134-1.842-6.783-5.651-8.334-8.722-1.793 4.359-5.271 6.867-8.201 8.272z" fill="#3a312a"/><path d="m26.026 43.325s2.411 8.954 9.352 9.369c0 0-9.266 3.201-9.422 10.045 0 0-1.824-9.6-9.142-9.944-.001.001 8.523-1.291 9.212-9.47z" fill="#d6df58"/><path d="m25.955 64.24c-.714 0-1.337-.507-1.473-1.22-.016-.081-1.704-8.442-7.739-8.726-.771-.037-1.388-.651-1.428-1.421-.04-.771.511-1.445 1.273-1.561.296-.047 7.363-1.243 7.942-8.114.062-.726.636-1.303 1.361-1.368.717-.063 1.392.399 1.582 1.102.021.079 2.227 7.92 7.993 8.265.714.043 1.299.584 1.396 1.293s-.32 1.388-.997 1.622c-.08.028-8.282 2.952-8.411 8.662-.018.767-.611 1.398-1.376 1.461-.04.004-.082.005-.123.005zm-4.52-11.528c2.108 1.332 3.524 3.394 4.447 5.28 1.376-2.232 3.516-3.872 5.365-4.972-2.287-1.269-3.885-3.35-4.941-5.224-1.173 2.287-3.015 3.875-4.871 4.916z" fill="#3a312a"/><path d="m26.026 16.668s2.411 8.954 9.352 9.37c0 0-9.266 3.201-9.422 10.045 0 0-1.824-9.6-9.142-9.944-.001-.001 8.523-1.292 9.212-9.471z" fill="#d6df58"/><path d="m25.955 37.583c-.714 0-1.337-.507-1.473-1.22-.016-.082-1.704-8.442-7.739-8.726-.771-.037-1.388-.651-1.428-1.421-.04-.771.511-1.445 1.273-1.56.296-.047 7.363-1.243 7.942-8.114.062-.726.636-1.303 1.361-1.368.717-.062 1.392.399 1.582 1.102.021.079 2.227 7.92 7.993 8.265.714.043 1.299.584 1.396 1.293s-.32 1.388-.996 1.622c-.081.028-8.283 2.953-8.412 8.662-.018.767-.611 1.397-1.376 1.461-.04.002-.082.004-.123.004zm-4.52-11.528c2.108 1.333 3.524 3.394 4.447 5.279 1.376-2.232 3.516-3.872 5.365-4.972-2.287-1.269-3.885-3.35-4.941-5.224-1.173 2.287-3.015 3.876-4.871 4.917z" fill="#3a312a"/><path d="m50.193 207.044 23.166 10.091 16.221 7.083 28.87 12.573c7.133 2.821 14.905 3.648 22.476 2.382l91.511-19.856c2.921-.489 4.651-2.294 5.679-4.325 2.47-4.876.514-11.069-4.312-13.626-1.855-.978-3.974-1.479-6.18-1.404l-47.397 1.818-60.209-28.481c-13.125-6.205-27.729-8.574-42.133-6.845l-11.006 1.329c-4.2.501-8.487-.188-12.323-2.006l-4.362-2.068v43.335z" fill="#fae6ca"/><path d="m133.962 241.246c-5.492 0-10.936-1.032-16.063-3.06l-68.304-29.767c-.548-.238-.901-.778-.901-1.375v-43.336c0-.514.264-.993.698-1.268.435-.275.979-.309 1.444-.088l4.362 2.069c3.579 1.695 7.559 2.342 11.502 1.872l11.005-1.329c14.711-1.766 29.562.646 42.954 6.978l59.877 28.324 47.03-1.804c2.445-.08 4.825.463 6.936 1.576 5.596 2.965 7.816 9.977 4.951 15.631-1.443 2.854-3.784 4.626-6.769 5.126l-91.44 19.843c-2.421.406-4.856.608-7.282.608zm-82.269-35.185 67.355 29.355c6.839 2.704 14.334 3.498 21.631 2.278l91.439-19.843c2.134-.359 3.635-1.511 4.658-3.536 2.095-4.135.411-9.458-3.676-11.624-1.649-.87-3.538-1.295-5.427-1.231l-47.391 1.818c-.236.005-.48-.04-.699-.143l-60.209-28.481c-12.879-6.089-27.163-8.41-41.313-6.711l-11.006 1.329c-4.508.54-9.053-.201-13.145-2.139l-2.22-1.053v39.981z" fill="#3a312a"/><path d="m165.354 215.024c-2.95 0-5.863-.446-8.56-.858-9.5-1.453-17.713-3.478-26.408-5.622-8.275-2.04-16.832-4.15-27.655-6.102-.815-.147-1.356-.927-1.21-1.742.147-.816.929-1.356 1.743-1.21 10.916 1.969 19.52 4.09 27.84 6.142 8.628 2.127 16.778 4.136 26.144 5.569 4.178.639 8.91 1.363 13.145.212 3.689-1.004 7.534-4.117 7.745-8.124.043-.827.721-1.473 1.577-1.419.827.044 1.462.75 1.419 1.577-.3 5.682-5.369 9.613-9.954 10.861-1.924.523-3.883.716-5.826.716z" fill="#3a312a"/><path d="m41.248 207.759c0 4.173-3.383 7.557-7.556 7.557s-7.556-3.383-7.556-7.557c0-4.173 3.383-7.556 7.556-7.556s7.556 3.383 7.556 7.556z" fill="#87796f"/><path d="m33.691 216.815c-4.993 0-9.056-4.063-9.056-9.056 0-4.994 4.063-9.056 9.056-9.056 4.994 0 9.057 4.063 9.057 9.056 0 4.994-4.062 9.056-9.057 9.056zm0-15.112c-3.339 0-6.056 2.717-6.056 6.056s2.717 6.056 6.056 6.056c3.34 0 6.057-2.717 6.057-6.056s-2.717-6.056-6.057-6.056z" fill="#3a312a"/><path d="m199.18 99.75c-2.55 0-5.06.25-7.48.73 11.39 2.21 21.04 9.36 26.62 19.12.73-.26 1.52-.37 2.32-.33 1.61.08 3.1.79 4.19 1.99 2.23 2.48 2.04 6.32-.44 8.56l-1.68 1.52c.5 2.49.76 5.06.76 7.7 0 19.1-13.7 35.06-31.79 38.57 2.43.47 4.94.72 7.5.72 21.66 0 39.29-17.63 39.29-39.29 0-21.67-17.63-39.29-39.29-39.29z" fill="#b9c239"/></g></svg>