<svg id="Layer_1" enable-background="new 0 0 256 256" height="512" viewBox="0 0 256 256" width="512" xmlns="http://www.w3.org/2000/svg"><g><g><g><path d="m232.054 142.111c-.09-.09-.181-.181-.271-.271-4.995-4.995-13.09-4.998-18.084-.002-10.622 10.626-27.725 27.729-35.009 35.014-2.228 2.228-5.236 3.466-8.387 3.466h-24.834c8.201-.043 14.838-6.701 14.838-14.912 0-8.238-6.678-14.916-14.916-14.916h-32.256c-8.029 0-15.715 3.25-21.309 9.01l-20.218 20.819h-7.613v49.668h82.959c9.454 0 18.52-3.755 25.206-10.439l59.894-59.883c4.846-4.849 4.847-12.707 0-17.554z" fill="#fcc4ae"/></g><g><path d="m232.758 142.889c.209 3.425-.983 6.919-3.6 9.537l-59.893 59.883c-6.685 6.684-15.752 10.439-25.206 10.439h-80.065v7.236h82.959c9.454 0 18.52-3.755 25.206-10.439l59.893-59.883c4.598-4.596 4.828-11.896.706-16.773z" fill="#f2ad97"/></g><g><path d="m145.39 180.321h-24.422c-1.199 0-2.171-.972-2.171-2.171 0-1.199.972-2.171 2.171-2.171h21.528c8.238 0 14.916-6.678 14.916-14.916 0-2.116-.447-4.125-1.241-5.949 2.556 2.677 4.135 6.296 4.135 10.291 0 8.238-6.678 14.916-14.916 14.916z" fill="#f2ad97"/></g><g><path d="m140.353 174.818h3.025c4.418 0 8-3.582 8-8v-2.825c0-4.418-3.582-8-8-8h-3.025c-1.105 0-2 .895-2 2v14.825c0 1.104.896 2 2 2z" fill="#ffd2c0"/></g><g><path d="m58.994 244.837h-33.683c-2.761 0-5-2.239-5-5v-69.372c0-2.761 2.239-5 5-5h33.683c2.761 0 5 2.239 5 5v69.372c0 2.761-2.238 5-5 5z" fill="#478cf7"/></g><g><path d="m26.312 220.837c-1.104 0-2-.896-2-2v-39c0-1.104.896-2 2-2s2 .896 2 2v39c0 1.104-.896 2-2 2zm0-47c-1.104 0-2-.896-2-2v-.372c0-1.104.896-2 2-2s2 .896 2 2v.372c0 1.104-.896 2-2 2z" fill="#5e9cf7"/></g><g><path d="m63.994 170.465c0-2.761-2.239-5-5-5h-15v54.372c0 2.761-2.239 5-5 5h-18.683v15c0 2.761 2.239 5 5 5h33.683c2.761 0 5-2.239 5-5z" fill="#377de2"/></g><g><path d="m63.994 170.465c0-2.761-2.239-5-5-5h-5v64.372c0 2.761-2.239 5-5 5h-28.683v5c0 2.761 2.239 5 5 5h33.683c2.761 0 5-2.239 5-5z" fill="#2266d3"/></g></g><g><g><g><g><path d="m167.343 94.366c-2.148 1.797-3.471 4.519-3.38 7.509.215 7.104-7.213 11.878-13.585 8.731-4.395-2.171-9.721-.607-12.245 3.596-.025.041-.055.075-.08.116l18.842 30.487c1.133 1.833 3.807 1.809 4.906-.044l7.57-12.756 15.501-1.375c2.126-.189 3.308-2.55 2.186-4.365z" fill="#e63950"/></g><g><path d="m121.984 114.201c-2.524-4.203-7.85-5.766-12.245-3.596-6.372 3.147-13.801-1.627-13.585-8.731.091-2.99-1.232-5.712-3.38-7.509l-19.714 31.897c-1.122 1.815.061 4.176 2.186 4.365l15.501 1.375 7.57 12.756c1.1 1.853 3.773 1.877 4.906.044l18.842-30.487c-.026-.039-.056-.073-.081-.114z" fill="#e63950"/></g><g><path d="m136.439 13.66c5.227-4.815 13.7-2.327 15.495 4.55 1.238 4.743 5.907 7.744 10.736 6.9 7.001-1.224 12.783 5.449 10.575 12.204-1.523 4.66.783 9.709 5.302 11.609 6.551 2.755 7.808 11.496 2.298 15.984-3.801 3.096-4.59 8.59-1.816 12.632 4.022 5.859.353 13.892-6.708 14.69-4.871.55-8.506 4.745-8.357 9.645.216 7.104-7.213 11.878-13.585 8.731-4.395-2.171-9.721-.607-12.245 3.596-3.659 6.092-12.49 6.092-16.149 0-2.524-4.203-7.85-5.766-12.245-3.596-6.372 3.147-13.801-1.627-13.585-8.731.149-4.9-3.486-9.095-8.357-9.645-7.062-.798-10.73-8.83-6.708-14.69 2.774-4.042 1.984-9.536-1.816-12.632-5.51-4.489-4.253-13.23 2.298-15.984 4.519-1.9 6.825-6.949 5.302-11.609-2.208-6.755 3.575-13.429 10.575-12.204 4.829.845 9.498-2.156 10.736-6.9 1.794-6.876 10.267-9.364 15.495-4.55 3.603 3.322 9.154 3.322 12.759 0z" fill="#ffc91d"/></g><g><circle cx="130.058" cy="64.967" fill="#ffa91a" r="40.153"/></g><g><circle cx="130.058" cy="64.967" fill="#f79219" r="34.784"/></g><g><path d="m134.789 30.511c6.214 6.283 10.054 14.92 10.054 24.455 0 19.211-15.573 34.784-34.784 34.784-1.605 0-3.183-.118-4.73-.329 6.305 6.376 15.055 10.329 24.73 10.329 19.211 0 34.784-15.573 34.784-34.784-.001-17.605-13.083-32.146-30.054-34.455z" fill="#ef7816"/></g></g><g><g><path d="m124.262 86.865c-1.39 0-2.738-.518-3.775-1.462l-16.42-14.965c-2.288-2.085-2.452-5.629-.367-7.917s5.629-2.452 7.917-.367l11.888 10.834 19.717-25.987c1.87-2.466 5.386-2.948 7.852-1.077s2.948 5.386 1.077 7.852l-23.423 30.873c-.951 1.254-2.386 2.05-3.953 2.193-.173.015-.343.023-.513.023z" fill="#fff"/></g></g></g></g></g></svg>