<?xml version="1.0" encoding="iso-8859-1"?>
<!-- Generator: Adobe Illustrator 19.0.0, SVG Export Plug-In . SVG Version: 6.00 Build 0)  -->
<svg version="1.1" id="Capa_1" xmlns="http://www.w3.org/2000/svg" xmlns:xlink="http://www.w3.org/1999/xlink" x="0px" y="0px"
	 viewBox="0 0 509.071 509.071" style="enable-background:new 0 0 509.071 509.071;" xml:space="preserve">
<g>
	<g>
		<path style="fill:#2C2F38;" d="M337.292,129.505c-2.777-0.005-5.391-1.315-7.058-3.536c-1.667-2.222-2.193-5.097-1.421-7.765
			l24.013-82.448c0.738-3.031,0.242-6.231-1.379-8.897c-1.548-2.476-4.036-4.217-6.892-4.823l-28.759-4.487
			c-3.119-0.484-5.743-2.596-6.881-5.541s-0.616-6.273,1.368-8.728c1.984-2.455,5.128-3.664,8.246-3.171l29.306,4.59
			c7.715,1.536,14.453,6.19,18.621,12.862c4.184,6.818,5.416,15.044,3.414,22.789l-24.108,82.793
			C344.665,126.909,341.215,129.501,337.292,129.505z"/>
		<path style="fill:#2C2F38;" d="M500.184,209.742c-4.343-0.006-8.036-3.171-8.707-7.461l-4.59-29.306
			c-0.69-2.648-2.386-4.921-4.728-6.336c-2.759-1.649-6.074-2.09-9.168-1.22L390.9,189.268c-3.03,0.883-6.301,0.08-8.579-2.104
			c-2.278-2.184-3.217-5.418-2.462-8.483c0.754-3.064,3.087-5.493,6.119-6.37l82.362-23.923c7.801-2.142,16.139-0.984,23.06,3.203
			c6.567,4.029,11.2,10.568,12.823,18.099l4.694,29.858c0.397,2.55-0.341,5.147-2.02,7.107
			C505.218,208.616,502.766,209.743,500.184,209.742L500.184,209.742z"/>
	</g>
	<path style="fill:#D1D4D1;" d="M486.866,411.896c-1.059,34.957-22.157,60.557-49.699,77.241
		c-23.837,15.965-53.708,20.037-80.949,11.034c-7.61,3.403-15.617,5.835-23.834,7.239c-62.676,11.299-91.719-37.606-103.724-69.385
		h-0.088c-9.91,7.808-20.352,14.917-31.25,21.274c-20.079,11.867-42.061,20.169-64.971,24.541
		c-34.428,6.179-65.589-0.265-86.157-20.833c-20.568-20.568-27.012-51.641-20.833-86.157c4.407-22.955,12.77-44.969,24.717-65.059
		c6.274-10.929,13.356-21.375,21.186-31.25C39.572,268.536-9.597,239.493,1.702,176.64c1.404-8.189,3.836-16.167,7.239-23.746
		v-0.088c-9.015-27.24-4.943-57.116,11.034-80.949c16.596-27.63,42.284-48.728,77.153-49.788c7.382-0.087,14.751,0.623,21.981,2.119
		c61.97,12.712,106.549,69.12,129.059,127.206c4.088-8.657,9.643-16.542,16.419-23.305c13.506-13.506,38.93-18.273,63.735-19.156
		c17.061-0.36,34.123,0.643,51.023,3.001c9.427,0.805,17.046,8.021,18.361,17.39c2.136,17.097,2.991,34.329,2.56,51.553
		c-0.971,24.806-5.738,50.229-19.245,63.735c-6.704,6.76-14.567,12.262-23.216,16.243c57.997,22.687,114.317,67.266,127.117,129.148
		C486.358,397.209,487.009,404.549,486.866,411.896z"/>
	<path style="fill:#F0C419;" d="M400.268,180.878c-0.971,24.806-5.738,50.229-19.245,63.735
		c-6.704,6.76-14.567,12.262-23.216,16.243c-3.354-1.324-6.797-2.56-10.152-3.708c-8.351-2.947-16.87-5.394-25.512-7.327
		c-5.118-32.308-30.457-57.646-62.764-62.764h-0.088c-1.933-8.642-4.38-17.161-7.327-25.512l-0.088-0.088
		c-1.148-3.354-2.383-6.621-3.708-9.975v-0.088c4.088-8.657,9.643-16.542,16.419-23.305c13.506-13.506,38.93-18.273,63.735-19.156
		c17.061-0.36,34.123,0.643,51.023,3.001c9.427,0.805,17.046,8.021,18.361,17.39C399.843,146.421,400.699,163.654,400.268,180.878z"
		/>
	<path id="SVGCleanerId_0" style="fill:#BDC3C7;" d="M266.971,242.053c-7.54,9.998-16.422,18.909-26.394,26.483
		C248.091,258.515,256.976,249.6,266.971,242.053z"/>
	<path style="fill:#D1D4D1;" d="M486.866,411.896c-1.059,34.957-22.157,60.557-49.699,77.241
		c-23.837,15.965-53.708,20.037-80.949,11.034c18.68-7.865,33.345-23.008,40.607-41.931c2.408-6.231,4.096-12.718,5.032-19.332
		c11.299-75.211-49.523-150.334-105.754-183.261c-7.668-5.099-15.726-9.585-24.099-13.418c10.112,0.483,20.175,1.722,30.102,3.708
		c6.533,0.971,13.241,2.207,20.039,3.884c8.642,1.933,17.161,4.38,25.512,7.327c3.354,1.148,6.797,2.383,10.152,3.708
		c57.997,22.687,114.317,67.266,127.117,129.148C486.358,397.209,487.009,404.549,486.866,411.896z"/>
	<path style="fill:#BDC3C7;" d="M401.857,438.908c-0.935,6.615-2.624,13.101-5.032,19.332
		c-7.262,18.923-21.927,34.066-40.607,41.931c-7.61,3.403-15.617,5.835-23.834,7.239c-62.676,11.299-91.719-37.606-103.724-69.385
		c-3.221-8.215-5.732-16.691-7.503-25.335c0,0-27.542-81.302,19.244-143.978l0.177-0.177c9.973-7.574,18.854-16.485,26.394-26.483
		c0.177-0.088,0.265-0.265,0.441-0.353c0.706-0.53,2.295-0.265,4.326,0.53c0.088-0.088,0.088,0,0.177,0h0.088
		c8.373,3.833,16.431,8.319,24.099,13.418C352.334,288.574,413.156,363.697,401.857,438.908z"/>
	<g>
		<path id="SVGCleanerId_0_1_" style="fill:#BDC3C7;" d="M266.971,242.053c-7.54,9.998-16.422,18.909-26.394,26.483
			C248.091,258.515,256.976,249.6,266.971,242.053z"/>
	</g>
	<g>
		<path style="fill:#2C2F38;" d="M68.105,471.244c-25.011,4.739-47.931,17.131-65.592,35.464
			c18.331-17.667,30.721-40.591,35.458-65.605L68.105,471.244z"/>
		<path style="fill:#2C2F38;" d="M197.321,459.211v0.088c-20.079,11.867-42.061,20.169-64.971,24.541
			c-3.392-27.186-15.793-52.453-35.222-71.768C77.836,392.61,52.558,380.204,25.36,376.85c4.407-22.955,12.77-44.969,24.717-65.059
			c37.145,5.402,71.531,22.719,97.986,49.346C174.719,387.597,192.013,422.03,197.321,459.211z"/>
	</g>
	<path style="fill:#F0C419;" d="M132.35,483.84c-34.428,6.179-65.589-0.265-86.157-20.833
		c-20.568-20.568-27.012-51.641-20.833-86.157c27.198,3.354,52.476,15.76,71.768,35.222
		C116.558,431.388,128.958,456.654,132.35,483.84z"/>
	<path style="fill:#BDC3C7;" d="M267.324,241.611c-0.088,0.177-0.265,0.265-0.353,0.441c-9.995,7.547-18.881,16.462-26.394,26.483
		l-0.177,0.177c-62.588,46.786-143.978,19.244-143.978,19.244c-8.578-1.766-16.994-4.246-25.159-7.415
		C39.572,268.536-9.597,239.493,1.702,176.64c1.404-8.189,3.836-16.167,7.239-23.746v-0.088
		c7.918-18.644,23.043-33.291,41.931-40.607c6.231-2.409,12.718-4.097,19.332-5.032c75.211-11.299,150.334,49.523,183.172,105.754
		c5.099,7.668,9.585,15.726,13.418,24.099v0.177C267.589,239.316,267.854,240.905,267.324,241.611z"/>
	<path style="fill:#D1D4D1;" d="M266.795,237.021c-3.833-8.373-8.319-16.431-13.418-24.099
		C220.538,156.69,145.415,95.868,70.204,107.167c-6.615,0.935-13.101,2.623-19.332,5.032c-18.888,7.316-34.013,21.963-41.931,40.607
		c-9.015-27.24-4.943-57.116,11.034-80.949c16.596-27.63,42.284-48.728,77.153-49.788c7.382-0.087,14.751,0.623,21.981,2.119
		c61.97,12.712,106.549,69.12,129.059,127.206v0.088c1.324,3.354,2.56,6.621,3.708,9.975l0.088,0.088
		c2.947,8.351,5.394,16.87,7.327,25.512c1.623,6.547,2.891,13.178,3.796,19.862C265.155,216.833,266.395,226.902,266.795,237.021z"
		/>
	<path style="fill:#2C2F38;" d="M322.144,249.821c-6.797-1.677-13.506-2.913-20.039-3.884c-9.927-1.985-19.99-3.224-30.102-3.708
		h-0.088c-0.088,0-0.088-0.088-0.177,0c-2.03-0.794-3.619-1.059-4.326-0.53c-0.177,0.088-0.265,0.265-0.441,0.353
		c0.088-0.177,0.265-0.265,0.353-0.441c0.53-0.706,0.265-2.295-0.53-4.414v-0.177c-0.4-10.119-1.64-20.188-3.708-30.102
		c-0.905-6.684-2.173-13.315-3.796-19.862h0.088C291.686,192.175,317.024,217.514,322.144,249.821L322.144,249.821z"/>
	<path style="fill:#F0C419;" d="M221.156,412.69c1.772,8.644,4.282,17.12,7.503,25.335h-0.088
		c-9.91,7.808-20.352,14.917-31.25,21.274v-0.088c-5.309-37.181-22.603-71.615-49.258-98.074
		c-26.455-26.628-60.842-43.945-97.986-49.346c6.274-10.929,13.356-21.375,21.186-31.25c8.165,3.169,16.58,5.65,25.159,7.415
		c0,0,81.39,27.542,143.978-19.244C193.614,331.388,221.156,412.69,221.156,412.69z"/>
</g>
<g>
</g>
<g>
</g>
<g>
</g>
<g>
</g>
<g>
</g>
<g>
</g>
<g>
</g>
<g>
</g>
<g>
</g>
<g>
</g>
<g>
</g>
<g>
</g>
<g>
</g>
<g>
</g>
<g>
</g>
</svg>
