<?xml version="1.0" encoding="iso-8859-1"?>
<!-- Generator: Adobe Illustrator 19.0.0, SVG Export Plug-In . SVG Version: 6.00 Build 0)  -->
<svg version="1.1" id="Layer_1" xmlns="http://www.w3.org/2000/svg" xmlns:xlink="http://www.w3.org/1999/xlink" x="0px" y="0px"
	 viewBox="0 0 512 512" style="enable-background:new 0 0 512 512;" xml:space="preserve">
<g transform="translate(1 1)">
	<g>
		<path style="fill:#FFE100;" d="M263.654,118.467c-5.12,0-8.533-3.413-8.533-8.533V7.533c0-5.12,3.413-8.533,8.533-8.533
			c5.12,0,8.533,3.413,8.533,8.533v102.4C272.188,114.2,268.774,118.467,263.654,118.467z"/>
		<path style="fill:#FFE100;" d="M199.654,442.733h110.933c16.213,0,29.867,13.653,29.867,29.867s-13.653,29.867-29.867,29.867
			H199.654c-16.213,0-29.867-13.653-29.867-29.867S183.441,442.733,199.654,442.733"/>
		<path style="fill:#FFE100;" d="M161.254,374.467h187.733c18.773,0,34.133,15.36,34.133,34.133
			c0,18.773-15.36,34.133-34.133,34.133H161.254c-18.773,0-34.133-15.36-34.133-34.133
			C127.121,389.827,142.481,374.467,161.254,374.467"/>
		<path style="fill:#FFE100;" d="M144.188,237.933h221.867c18.773,0,34.133,15.36,34.133,34.133s-15.36,34.133-34.133,34.133
			H144.188c-18.773,0-34.133-15.36-34.133-34.133S125.414,237.933,144.188,237.933"/>
		<path style="fill:#FFE100;" d="M144.188,306.2h221.867c18.773,0,34.133,15.36,34.133,34.133s-15.36,34.133-34.133,34.133H144.188
			c-18.773,0-34.133-15.36-34.133-34.133S125.414,306.2,144.188,306.2"/>
	</g>
	<path style="fill:#63D3FD;" d="M297.788,374.467h-85.333v-59.733c0-23.893,18.773-42.667,42.667-42.667l0,0
		c23.893,0,42.667,18.773,42.667,42.667V374.467z"/>
	<path style="fill:#3DB9F9;" d="M255.121,272.067c-4.267,0-8.533,0.853-12.8,2.56c17.067,5.12,29.867,21.333,29.867,40.107v59.733
		h25.6v-59.733C297.788,290.84,279.014,272.067,255.121,272.067"/>
	<path style="fill:#FFE100;" d="M161.254,169.667h187.733c18.773,0,34.133,15.36,34.133,34.133s-15.36,34.133-34.133,34.133H161.254
		c-18.773,0-34.133-15.36-34.133-34.133S142.481,169.667,161.254,169.667"/>
	<g>
		<path style="fill:#FFA800;" d="M348.988,169.667h-25.6c18.773,0,34.133,15.36,34.133,34.133s-15.36,34.133-34.133,34.133h25.6
			c18.773,0,34.133-15.36,34.133-34.133S367.761,169.667,348.988,169.667"/>
		<path style="fill:#FFA800;" d="M366.054,237.933h-25.6c18.773,0,34.133,15.36,34.133,34.133s-15.36,34.133-34.133,34.133h25.6
			c18.773,0,34.133-15.36,34.133-34.133S384.828,237.933,366.054,237.933"/>
		<path style="fill:#FFA800;" d="M366.054,306.2h-25.6c18.773,0,34.133,15.36,34.133,34.133s-15.36,34.133-34.133,34.133h25.6
			c18.773,0,34.133-15.36,34.133-34.133S384.828,306.2,366.054,306.2"/>
		<path style="fill:#FFA800;" d="M348.988,374.467h-25.6c18.773,0,34.133,15.36,34.133,34.133c0,18.773-15.36,34.133-34.133,34.133
			h25.6c18.773,0,34.133-15.36,34.133-34.133C383.121,389.827,367.761,374.467,348.988,374.467"/>
		<path style="fill:#FFA800;" d="M310.588,442.733h-25.6c16.213,0,29.867,13.653,29.867,29.867s-13.653,29.867-29.867,29.867h25.6
			c16.213,0,29.867-13.653,29.867-29.867S326.801,442.733,310.588,442.733"/>
	</g>
	<g>
		<path style="fill:#FFFFFF;" d="M161.254,169.667h25.6c-18.773,0-34.133,15.36-34.133,34.133s15.36,34.133,34.133,34.133h-25.6
			c-18.773,0-34.133-15.36-34.133-34.133S142.481,169.667,161.254,169.667"/>
		<path style="fill:#FFFFFF;" d="M144.188,237.933h25.6c-18.773,0-34.133,15.36-34.133,34.133s15.36,34.133,34.133,34.133h-25.6
			c-18.773,0-34.133-15.36-34.133-34.133S125.414,237.933,144.188,237.933"/>
		<path style="fill:#FFFFFF;" d="M144.188,306.2h25.6c-18.773,0-34.133,15.36-34.133,34.133s15.36,34.133,34.133,34.133h-25.6
			c-18.773,0-34.133-15.36-34.133-34.133S125.414,306.2,144.188,306.2"/>
		<path style="fill:#FFFFFF;" d="M161.254,374.467h25.6c-18.773,0-34.133,15.36-34.133,34.133c0,18.773,15.36,34.133,34.133,34.133
			h-25.6c-18.773,0-34.133-15.36-34.133-34.133C127.121,389.827,142.481,374.467,161.254,374.467"/>
		<path style="fill:#FFFFFF;" d="M199.654,442.733h25.6c-16.213,0-29.867,13.653-29.867,29.867s13.653,29.867,29.867,29.867h-25.6
			c-16.213,0-29.867-13.653-29.867-29.867S183.441,442.733,199.654,442.733"/>
	</g>
	<path style="fill:#FFE100;" d="M199.654,109.933h110.933c16.213,0,29.867,13.653,29.867,29.867s-13.653,29.867-29.867,29.867
		H199.654c-16.213,0-29.867-13.653-29.867-29.867S183.441,109.933,199.654,109.933"/>
	<path style="fill:#FFA800;" d="M310.588,109.933h-25.6c16.213,0,29.867,13.653,29.867,29.867s-13.653,29.867-29.867,29.867h25.6
		c16.213,0,29.867-13.653,29.867-29.867S326.801,109.933,310.588,109.933"/>
	<path style="fill:#FFFFFF;" d="M199.654,109.933h25.6c-16.213,0-29.867,13.653-29.867,29.867s13.653,29.867,29.867,29.867h-25.6
		c-16.213,0-29.867-13.653-29.867-29.867S183.441,109.933,199.654,109.933"/>
	<g>
		<path style="fill:#FFE100;" d="M74.214,219.16c-10.24,10.24-23.893,12.8-29.867,5.973c-6.827-6.827-4.267-20.48,5.973-29.867
			c10.24-10.24,23.893-12.8,29.867-5.973C87.014,195.267,84.454,208.92,74.214,219.16"/>
		<path style="fill:#FFE100;" d="M50.321,195.267c-10.24,10.24-23.893,12.8-29.867,5.973c-6.827-6.827-4.267-20.48,5.973-29.867
			c10.24-10.24,23.893-12.8,29.867-5.973C63.121,171.373,59.708,185.027,50.321,195.267"/>
		<path style="fill:#FFE100;" d="M483.814,484.547c-10.24,10.24-23.893,12.8-29.867,5.973c-6.827-6.827-4.267-20.48,5.973-29.867
			c10.24-10.24,23.893-12.8,29.867-5.973C496.614,460.653,494.054,474.307,483.814,484.547"/>
		<path style="fill:#FFE100;" d="M459.921,459.8c-10.24,10.24-23.893,12.8-29.867,5.973c-6.827-6.827-4.267-20.48,5.973-29.867
			c10.24-10.24,23.893-12.8,29.867-5.973C472.721,436.76,469.308,450.413,459.921,459.8"/>
		<path style="fill:#FFE100;" d="M367.761,74.947c10.24,9.387,23.893,12.8,29.867,5.973c6.827-6.827,4.267-20.48-5.973-30.72
			c-10.24-10.24-23.893-12.8-29.867-5.973C354.961,51.053,357.521,64.707,367.761,74.947"/>
		<path style="fill:#FFE100;" d="M391.654,50.2c10.24,10.24,23.893,12.8,29.867,5.973c7.68-5.973,4.267-19.627-5.12-29.867
			c-10.24-10.24-23.893-12.8-29.867-5.973C378.854,27.16,382.268,40.813,391.654,50.2"/>
	</g>
	<path d="M310.588,511H199.654c-21.333,0-38.4-17.067-38.4-38.4c0-21.333,17.067-38.4,38.4-38.4h110.933
		c21.333,0,38.4,17.067,38.4,38.4C348.988,493.933,331.921,511,310.588,511z M199.654,451.267c-11.947,0-21.333,9.387-21.333,21.333
		c0,11.947,9.387,21.333,21.333,21.333h110.933c11.947,0,21.333-9.387,21.333-21.333c0-11.947-9.387-21.333-21.333-21.333H199.654z"
		/>
	<path d="M348.988,451.267H161.254c-23.893,0-42.667-18.773-42.667-42.667c0-23.893,18.773-42.667,42.667-42.667h187.733
		c23.893,0,42.667,18.773,42.667,42.667C391.654,432.493,372.881,451.267,348.988,451.267z M161.254,383
		c-14.507,0-25.6,11.093-25.6,25.6c0,14.507,11.093,25.6,25.6,25.6h187.733c14.507,0,25.6-11.093,25.6-25.6
		c0-14.507-11.093-25.6-25.6-25.6H161.254z"/>
	<path d="M310.588,178.2H199.654c-21.333,0-38.4-17.067-38.4-38.4s17.067-38.4,38.4-38.4h110.933c21.333,0,38.4,17.067,38.4,38.4
		S331.921,178.2,310.588,178.2z M199.654,118.467c-11.947,0-21.333,9.387-21.333,21.333s9.387,21.333,21.333,21.333h110.933
		c11.947,0,21.333-9.387,21.333-21.333s-9.387-21.333-21.333-21.333H199.654z"/>
	<path d="M348.988,246.467H161.254c-23.893,0-42.667-18.773-42.667-42.667s18.773-42.667,42.667-42.667h187.733
		c23.893,0,42.667,18.773,42.667,42.667S372.881,246.467,348.988,246.467z M161.254,178.2c-14.507,0-25.6,11.093-25.6,25.6
		c0,14.507,11.093,25.6,25.6,25.6h187.733c14.507,0,25.6-11.093,25.6-25.6c0-14.507-11.093-25.6-25.6-25.6H161.254z"/>
	<path d="M297.788,383h-85.333c-5.12,0-8.533-3.413-8.533-8.533v-59.733c0-28.16,23.04-51.2,51.2-51.2s51.2,23.04,51.2,51.2v59.733
		C306.321,379.587,302.908,383,297.788,383z M220.988,365.933h68.267v-51.2c0-18.773-15.36-34.133-34.133-34.133
		s-34.133,15.36-34.133,34.133V365.933z"/>
	<path d="M212.454,383h-68.267c-23.893,0-42.667-18.773-42.667-42.667c0-23.893,18.773-42.667,42.667-42.667h69.12
		c2.56,0,5.12,0.853,6.827,3.413c1.707,2.56,2.56,4.267,1.707,6.827c-0.853,2.56-0.853,4.267-0.853,6.827v59.733
		C220.988,379.587,217.574,383,212.454,383z M144.188,314.733c-14.507,0-25.6,11.093-25.6,25.6c0,14.507,11.093,25.6,25.6,25.6
		h59.733v-51.2H144.188z"/>
	<path d="M366.054,383h-68.267c-5.12,0-8.533-3.413-8.533-8.533v-59.733c0-2.56,0-4.267-0.853-6.827c-0.853-2.56,0-5.12,1.707-6.827
		c1.707-1.707,4.267-3.413,6.827-3.413h69.12c23.893,0,42.667,18.773,42.667,42.667C408.721,364.227,389.948,383,366.054,383z
		 M306.321,365.933h59.733c14.507,0,25.6-11.093,25.6-25.6c0-14.507-11.093-25.6-25.6-25.6h-59.733V365.933z"/>
	<path d="M366.054,314.733h-69.12c-4.267,0-7.68-2.56-8.533-6.827c-3.413-16.213-17.067-27.307-33.28-27.307
		s-29.867,11.093-33.28,27.307c-0.853,4.267-4.267,6.827-8.533,6.827h-69.12c-23.893,0-42.667-18.773-42.667-42.667
		s18.773-42.667,42.667-42.667h221.867c23.893,0,42.667,18.773,42.667,42.667S389.948,314.733,366.054,314.733z M303.761,297.667
		h62.293c14.507,0,25.6-11.093,25.6-25.6s-11.093-25.6-25.6-25.6H144.188c-14.507,0-25.6,11.093-25.6,25.6s11.093,25.6,25.6,25.6
		h62.293c6.827-20.48,26.453-34.133,48.64-34.133S296.081,277.187,303.761,297.667z"/>
	<path d="M255.121,118.467c-5.12,0-8.533-3.413-8.533-8.533V7.533c0-5.12,3.413-8.533,8.533-8.533s8.533,3.413,8.533,8.533v102.4
		C263.654,114.2,260.241,118.467,255.121,118.467z"/>
	<path d="M19.601,233.667c-2.56,0-4.267-0.853-5.973-2.56c-3.413-3.413-3.413-8.533,0-11.947l60.587-60.587
		c3.413-3.413,8.533-3.413,11.947,0c3.413,3.413,3.413,8.533,0,11.947l-60.587,60.587C23.868,232.813,22.161,233.667,19.601,233.667
		z"/>
	<path d="M53.734,237.08c-5.973,0-11.947-1.707-15.36-5.973c-5.12-5.12-7.68-12.8-5.973-21.333
		c1.707-7.68,5.973-14.507,11.947-20.48c12.8-12.8,32.427-16.213,41.813-5.973c10.24,10.24,7.68,29.013-5.973,42.667
		C72.508,232.813,63.121,237.08,53.734,237.08z M70.801,193.56c-3.413,0-9.387,1.707-14.507,6.827
		c-3.413,3.413-5.973,7.68-6.827,11.947c-0.853,2.56,0,5.12,0.853,5.973s2.56,0.853,3.413,0.853c3.413,0,9.387-1.707,14.507-6.827
		c7.68-7.68,8.533-15.36,5.973-17.92C73.361,194.413,71.654,193.56,70.801,193.56z"/>
	<path d="M29.841,213.187c-5.973,0-11.947-1.707-15.36-5.973c-5.12-5.12-7.68-12.8-5.973-21.333
		c1.707-7.68,5.973-14.507,11.947-20.48c12.8-12.8,32.427-16.213,41.813-5.973c10.24,10.24,7.68,29.013-5.973,41.813
		C48.614,208.92,38.374,213.187,29.841,213.187z M46.054,169.667c-3.413,0-9.387,1.707-14.507,6.827
		c-3.413,3.413-5.973,7.68-6.827,11.947c0,3.413,0,5.12,0.853,6.827c0.853,0.853,2.56,0.853,3.413,0.853
		c3.413,0,9.387-1.707,14.507-6.827c7.68-7.68,8.533-15.36,5.973-17.92C49.468,169.667,47.761,169.667,46.054,169.667z"/>
	<path d="M429.201,499.053c-2.56,0-4.267-0.853-5.973-2.56c-3.413-3.413-3.413-8.533,0-11.947l60.587-60.587
		c3.413-3.413,8.533-3.413,11.947,0c3.413,3.413,3.413,8.533,0,11.947l-60.587,60.587
		C433.468,498.2,431.761,499.053,429.201,499.053z"/>
	<path d="M463.334,502.467c-5.973,0-11.947-2.56-15.36-5.973c-5.12-5.12-7.68-12.8-5.973-21.333
		c1.707-7.68,5.973-14.507,11.947-20.48c12.8-12.8,32.427-16.213,41.813-5.973c10.24,10.24,7.68,29.013-5.973,42.667
		C482.108,498.2,472.721,502.467,463.334,502.467z M480.401,458.947c-3.413,0-9.387,1.707-14.507,6.827
		c-3.413,3.413-5.973,7.68-6.827,11.947c-0.853,2.56,0,5.12,0.853,5.973c0.853,0.853,2.56,0.853,3.413,0.853
		c3.413,0,9.387-1.707,14.507-6.827c7.68-7.68,8.533-15.36,5.973-17.92C482.961,458.947,481.254,458.947,480.401,458.947z"/>
	<path d="M439.441,478.573c-5.973,0-11.947-1.707-15.36-5.973c-10.24-10.24-7.68-29.013,5.973-42.667
		c12.8-12.8,32.427-16.213,41.813-5.973c10.24,10.24,7.68,29.013-5.973,42.667C458.214,474.307,447.974,478.573,439.441,478.573z
		 M455.654,435.053c-3.413,0-9.387,1.707-14.507,6.827c-7.68,7.68-8.533,15.36-5.973,17.92c0.853,0.853,2.56,0.853,3.413,0.853
		c3.413,0,9.387-1.707,14.507-6.827c7.68-7.68,8.533-15.36,5.973-17.92C459.068,435.053,457.361,435.053,455.654,435.053z"/>
	<path d="M422.374,89.453c-2.56,0-4.267-0.853-5.973-2.56l-60.587-60.587c-3.413-3.413-3.413-8.533,0-11.947
		c3.413-3.413,8.533-3.413,11.947,0l60.587,60.587c3.413,3.413,3.413,8.533,0,11.947C426.641,88.6,424.081,89.453,422.374,89.453z"
		/>
	<path d="M388.241,92.867L388.241,92.867c-9.387,0-18.773-4.267-26.453-11.947c-5.973-5.973-10.24-13.653-11.947-20.48
		c-1.707-8.533,0-16.213,5.973-21.333c10.24-10.24,29.013-6.827,41.813,5.973c7.68,7.68,11.947,17.067,11.947,26.453
		c0,5.973-1.707,11.947-5.973,15.36C400.188,91.16,394.214,92.867,388.241,92.867z M371.174,49.347c-0.853,0-2.56,0-3.413,0.853
		c-0.853,0.853-1.707,3.413-0.853,5.973c0.853,4.267,3.413,8.533,6.827,11.947c5.12,5.973,11.093,7.68,14.507,7.68
		c0.853,0,2.56,0,3.413-0.853c0.853-0.853,0.853-2.56,0.853-3.413c0-3.413-1.707-9.387-6.827-14.507
		C380.561,51.053,374.588,49.347,371.174,49.347z"/>
	<path d="M412.134,68.973L412.134,68.973c-9.387,0-18.773-4.267-26.453-11.947c-13.653-13.653-16.213-32.427-5.973-41.813
		c10.24-10.24,29.013-6.827,42.667,5.973C436.028,34.84,438.588,53.613,428.348,63C424.081,66.413,418.961,68.973,412.134,68.973z
		 M395.921,25.453c-0.853,0-2.56,0-3.413,0.853c-2.56,2.56-1.707,11.093,5.973,17.92c5.12,5.973,10.24,7.68,13.653,7.68
		c0.853,0,2.56,0,3.413-0.853c2.56-2.56,1.707-11.093-5.973-17.92C404.454,27.16,399.334,25.453,395.921,25.453z"/>
</g>
<g>
</g>
<g>
</g>
<g>
</g>
<g>
</g>
<g>
</g>
<g>
</g>
<g>
</g>
<g>
</g>
<g>
</g>
<g>
</g>
<g>
</g>
<g>
</g>
<g>
</g>
<g>
</g>
<g>
</g>
</svg>
