<svg height="497pt" viewBox="0 0 497.656 497" width="497pt" xmlns="http://www.w3.org/2000/svg"><g fill="#e6e9ed"><path d="m273.65625 440.328125h-56v-104.320313c14.238281-.71875 26.800781-2.238281 37.757812-4.320312-3.757812 11.519531-5.757812 23.839844-5.757812 36.640625 0 27.039063 8.960938 52 24 72zm0 0"/><path d="m97.65625 320.328125 1.441406-4.480469c15.917969 8.242188 43.519532 18.082032 86.558594 20.160156v104.320313h-104l4.160156-31.441406 4.398438-32.480469zm0 0"/><path d="m99.097656 315.847656-1.441406 4.480469-7.441406 56.078125-.558594-.078125h-67.921875l3.203125-16.960937c4.878906-30.800782 27.117188-55.757813 56.71875-64.320313v9.28125s5.28125 5.28125 17.441406 11.519531zm0 0"/></g><path d="m217.65625 336.328125v104h-32v-104.320313c5.121094.160157 10.480469.320313 16 .320313s10.878906-.160156 16-.320313zm0 0" fill="#fcd770"/><path d="m85.816406 408.886719-4.160156 31.441406h-72l6.078125-32.320313 1.921875.320313h64zm0 0" fill="#b4dd7f"/><path d="m90.214844 376.40625-4.398438 32.480469-4.160156-.558594h-64l-1.921875-.320313 6-31.679687h67.921875zm0 0" fill="#fcd770"/><path d="m321.65625 256.328125.800781 1.679687c-31.761719 13.601563-56.480469 40.480469-67.042969 73.679688-10.957031 2.082031-23.519531 3.601562-37.757812 4.320312-5.121094.160157-10.480469.320313-16 .320313s-10.878906-.160156-16-.320313c-43.039062-2.078124-70.640625-11.917968-86.558594-20.160156-12.160156-6.238281-17.441406-11.519531-17.441406-11.519531v-160h32v56c0 24.320313 9.839844 46.320313 25.757812 62.238281 15.921876 15.921875 37.921876 25.761719 62.242188 25.761719 48.640625 0 88-39.359375 88-88v-56h32zm0 0" fill="#e6e9ed"/><path d="m289.65625 144.328125v56c0 48.640625-39.359375 88-88 88-24.320312 0-46.320312-9.839844-62.242188-25.761719-15.917968-15.917968-25.757812-37.917968-25.757812-62.238281v-56zm0 0" fill="#f0d0b4"/><path d="m337.65625 112.328125 8 32h-288l8-32zm0 0" fill="#aab2bd"/><path d="m320.617188 112.328125h-237.921876c7.839844-58.71875 58.082032-104 118.960938-104 30.398438 0 58.238281 11.359375 79.359375 30s35.679687 44.640625 39.601563 74zm0 0" fill="#e6e9ed"/><path d="m255.414062 331.6875c10.5625-33.199219 35.28125-60.078125 67.042969-73.679688 14.480469-6.238281 30.480469-9.679687 47.199219-9.679687 66.238281 0 120 53.761719 120 120s-53.761719 120-120 120c-39.199219 0-74.082031-18.878906-96-48-15.039062-20-24-44.960937-24-72 0-12.800781 2-25.121094 5.757812-36.640625zm0 0" fill="#cf9e76"/><path d="m403.015625 405.128906-1.359375 3.199219c0 19.601563-11.121094 37.519531-28.640625 46.320313l-3.359375 1.679687-3.359375-1.679687c-17.519531-8.800782-28.640625-26.71875-28.640625-46.320313v-3.761719c5.601562-2.636718 11.28125-6.558594 16.480469-11.757812 10-10 15.519531-22 15.519531-31.601563 0 9.601563 5.519531 21.601563 15.519531 31.601563 5.601563 5.597656 11.839844 9.757812 17.839844 12.320312zm0 0" fill="#fcd770"/><path d="m397.335938 344.328125-.558594 1.839844c-9.042969-3.039063-17.441406-2.398438-22.5625 2.71875-3.117188 3.121093-4.558594 7.441406-4.558594 12.320312 0-4.878906-1.441406-9.199219-4.558594-12.320312-5.121094-5.117188-13.523437-5.757813-22.5625-2.71875l-.558594-1.839844c-2.800781-4.71875-4.320312-10.160156-4.320312-16 0-17.679687 14.320312-32 32-32s32 14.320313 32 32c0 5.839844-1.519531 11.28125-4.320312 16zm0 0" fill="#fcd770"/><path d="m337.65625 404.566406c-10.878906 5.121094-21.441406 5.203125-27.441406-.796875-9.117188-9.121093-4.160156-28.722656 10.960937-43.921875 6.71875-6.640625 14.238281-11.359375 21.359375-13.679687 9.039063-3.039063 17.441406-2.398438 22.5625 2.71875 3.117188 3.121093 4.558594 7.441406 4.558594 12.320312 0 9.601563-5.519531 21.601563-15.519531 31.601563-5.199219 5.199218-10.878907 9.121094-16.480469 11.757812zm0 0" fill="#e6e9ed"/><path d="m418.136719 359.847656c15.121093 15.199219 20.078125 34.800782 10.960937 43.921875-5.761718 5.757813-15.683594 5.917969-26.082031 1.359375-6-2.5625-12.238281-6.722656-17.839844-12.320312-10-10-15.519531-22-15.519531-31.601563 0-4.878906 1.441406-9.199219 4.558594-12.320312 5.121094-5.117188 13.519531-5.757813 22.5625-2.71875 7.117187 2.320312 14.71875 7.039062 21.359375 13.679687zm0 0" fill="#e6e9ed"/><path d="m407.167969 342.023438c1.59375-4.367188 2.488281-8.992188 2.488281-13.695313 0-12.222656-5.632812-23.046875-14.296875-30.390625l11.953125-11.953125-11.3125-11.3125-15.375 15.375c-3.511719-1.007813-7.136719-1.71875-10.96875-1.71875s-7.457031.710937-10.96875 1.71875l-15.375-15.375-11.3125 11.3125 11.953125 11.953125c-8.664063 7.34375-14.296875 18.167969-14.296875 30.390625 0 4.703125.894531 9.320313 2.488281 13.695313-5.730469 2.96875-11.390625 6.976562-16.609375 12.191406-18.550781 18.554687-23.375 42.800781-10.976562 55.210937 4.53125 4.527344 10.867187 6.886719 18.097656 6.886719 2.398438 0 4.929688-.328125 7.496094-.855469 2.34375 19.863281 14.328125 37.230469 32.550781 46.351563l6.953125 3.464844 6.953125-3.480469c18.230469-9.113281 30.207031-26.480469 32.550781-46.351563 2.566406.527344 5.085938.855469 7.496094.855469 7.222656 0 13.558594-2.359375 18.097656-6.890625 12.398438-12.40625 7.574219-36.652344-10.976562-55.207031-5.21875-5.207031-10.890625-9.207031-16.609375-12.175781zm-61.511719-13.695313c0-13.230469 10.769531-24 24-24s24 10.769531 24 24c0 2.976563-.734375 5.839844-1.792969 8.582031-8.625-1.261718-16.488281.464844-22.207031 5.515625-5.71875-5.058593-13.585938-6.785156-22.207031-5.523437-1.058594-2.742188-1.792969-5.597656-1.792969-8.574219zm-29.785156 69.777344c-5.101563-5.105469-1.488282-20.121094 10.976562-32.585938 8.832032-8.832031 18.929688-13.207031 25.886719-13.207031 2.867187 0 5.203125.742188 6.699219 2.230469 5.09375 5.105469 1.488281 20.128906-10.976563 32.585937-6.226562 6.222656-13.695312 10.773438-20.496093 12.472656-5.386719 1.351563-9.792969.796876-12.089844-1.496093zm53.785156 49.277343c-14.519531-7.34375-23.578125-21.863281-23.9375-38.078124 4.9375-2.878907 9.714844-6.519532 14.050781-10.863282 3.984375-3.984375 7.199219-8.25 9.878907-12.585937 2.679687 4.335937 5.894531 8.609375 9.878906 12.585937 4.335937 4.335938 9.113281 7.984375 14.046875 10.863282-.34375 16.214843-9.398438 30.734374-23.917969 38.078124zm53.785156-49.277343c-2.296875 2.292969-6.714844 2.847656-12.089844 1.503906-6.808593-1.699219-14.273437-6.25-20.496093-12.472656-12.464844-12.464844-16.070313-27.488281-10.976563-32.585938 1.496094-1.488281 3.832032-2.230469 6.695313-2.230469 6.960937 0 17.074219 4.382813 25.890625 13.207032 12.457031 12.457031 16.070312 27.472656 10.976562 32.578125zm0 0"/><path d="m369.65625 240.328125c-13.976562 0-27.398438 2.328125-40 6.488281v-94.488281h26.246094l-12-48h-16.628906c-11.371094-59.734375-64.097657-104-125.617188-104s-114.25 44.265625-125.617188 104h-16.632812l-12 48h26.25v137.152344c-29.632812 10.945312-51.625 37.144531-56.542969 68.40625l-17.113281 90.441406h269.894531c23.480469 29.222656 59.449219 48 99.761719 48 70.574219 0 128-57.425781 128-128s-57.425781-128-128-128zm-168-224c52.816406 0 98.28125 37.238281 109.375 88h-218.75c11.09375-50.761719 56.558594-88 109.375-88zm-129.753906 104h259.503906l4 16h-267.503906zm49.753906 32h160v48c0 44.113281-35.886719 80-80 80s-80-35.886719-80-80zm-16 0v48c0 52.9375 43.0625 96 96 96s96-43.0625 96-96v-48h16v101.078125c-29.578125 14.472656-52.71875 39.960938-64.128906 71.144531-14.785156 2.457031-30.808594 3.777344-47.871094 3.777344-70.257812 0-103.382812-21.136719-112-27.71875v-148.28125zm-26.734375 248h-53.5625l3.023437-16h52.664063zm98.734375-56.914063v88.914063h-86.863281l13.992187-104.96875c16.199219 6.929687 40.015625 13.730469 72.871094 16.054687zm16 .730469c2.671875.0625 5.222656.183594 8 .183594 2.710938 0 5.335938-.113281 8-.167969v88.167969h-16zm-120-37.542969v1.039063l2.34375 2.34375c.472656.472656 4.800781 4.589844 13.65625 9.792969l-6.472656 48.550781h-51.777344l1.457031-7.710937c3.753907-23.792969 19.335938-44.007813 40.792969-54.015626zm-51.320312 109.726563h54.449218l-2.136718 16h-55.335938zm203.320312 16v-88.902344c6.441406-.457031 12.769531-1.050781 18.863281-1.875-1.847656 8.640625-2.863281 17.59375-2.863281 26.777344 0 23.328125 6.375 45.144531 17.320312 64zm144 48c-61.761719 0-112-50.238281-112-112s50.238281-112 112-112c61.757812 0 112 50.238281 112 112s-50.242188 112-112 112zm0 0"/></svg>