<svg id="Layer_1" height="512" viewBox="0 0 512 512" width="512" xmlns="http://www.w3.org/2000/svg" data-name="Layer 1"><path d="m128 11h.26.01z" fill="#94bdcd"/><path d="m341.62 11.21-213.36-.21a30.226 30.226 0 0 0 -30.26 29.98v31.02l248 275.67 59.885-8.92.115-271.61z" fill="#94bdcd"/><path d="m405.86 66.91v.23h-64.17v-55.93l.22.02z" fill="#7da1ad"/><path d="m282 61.18-213.73-.18a30.2 30.2 0 0 0 -30.27 29.95v358.82a30.44 30.44 0 0 0 30.27 30.23h247.59a30.3 30.3 0 0 0 11.29-2.3l18.85-136.02v-224.68z" fill="#acd8e5"/><path d="m94.68 166.82a8.985 8.985 0 1 1 -8.94 8.98 8.965 8.965 0 0 1 8.94-8.98z" fill="#6d7486"/><path d="m94.68 237.06a8.985 8.985 0 1 1 -8.94 8.98 8.965 8.965 0 0 1 8.94-8.98z" fill="#6d7486"/><path d="m94.68 307.3a8.985 8.985 0 1 1 -8.94 8.98 8.965 8.965 0 0 1 8.94-8.98z" fill="#6d7486"/><ellipse cx="94.68" cy="386.52" fill="#6d7486" rx="8.94" ry="8.98"/><path d="m345.86 116.88v.23h-64.18v-55.93l.23.02z" fill="#7da1ad"/><path d="m405.78 328.75a87.2 87.2 0 1 1 -59.92 7.93v-.01a86.806 86.806 0 0 1 40.68-10.05 87.741 87.741 0 0 1 19.24 2.13z" fill="#5fcda4"/><path d="m68 449.77v-358.82a30.187 30.187 0 0 1 29.3-29.926l-29.03-.024a30.2 30.2 0 0 0 -30.27 29.95v358.82a30.44 30.44 0 0 0 30.27 30.23h30a30.44 30.44 0 0 1 -30.27-30.23z" fill="#8eb3bc"/><g fill="#284268"><path d="m355.863 409.312a6 6 0 0 0 -8.485 8.485l24.067 24.066a6 6 0 0 0 8.485 0l45.77-45.763a6 6 0 0 0 -8.486-8.486l-41.522 41.523z"/><path d="m68.229 486h247.636a34.716 34.716 0 0 0 10-1.515 93.173 93.173 0 1 0 86.135-160.329v-257.244a6.066 6.066 0 0 0 -2.131-4.525l-62.688-54.561a10.468 10.468 0 0 0 -6.863-2.573l-212.065-.253a36.265 36.265 0 0 0 -36.253 35.982v14.018h-23.735a36.371 36.371 0 0 0 -36.265 36.265v358.506a36.335 36.335 0 0 0 36.229 36.229zm399.5-72.19a81.19 81.19 0 1 1 -81.19-81.189 81.282 81.282 0 0 1 81.188 81.189zm-119.729-389.601 42.089 36.791h-42.089zm-244 16.775a23.984 23.984 0 0 1 23.984-23.984h208.016v50.136a5.863 5.863 0 0 0 5.864 5.864h58.136v248.6a93.214 93.214 0 0 0 -48 5.662v-210.38a6.068 6.068 0 0 0 -2.131-4.525l-62.913-54.757a9.677 9.677 0 0 0 -6.342-2.378l-176.614-.222zm226.09 70.016h-42.09v-36.82zm-286.09-20.045a23.955 23.955 0 0 1 23.955-23.955h208.045v50.107a5.893 5.893 0 0 0 5.893 5.893h58.107v210.1a93.086 93.086 0 0 0 -24.545 140.9h-247.191a24.336 24.336 0 0 1 -24.264-24.264z"/><path d="m138.557 182h72.156a6 6 0 0 0 0-12h-72.156a6 6 0 0 0 0 12z"/><path d="m94.677 190.787a14.984 14.984 0 1 0 -14.94-14.987 14.979 14.979 0 0 0 14.94 14.987zm0-17.967a2.984 2.984 0 1 1 -2.94 2.984 2.965 2.965 0 0 1 2.94-2.984z"/><path d="m138.557 252h150.175a6 6 0 0 0 0-12h-150.175a6 6 0 0 0 0 12z"/><path d="m94.677 261.026a14.984 14.984 0 1 0 -14.94-14.984 14.979 14.979 0 0 0 14.94 14.984zm0-17.967a2.984 2.984 0 1 1 -2.94 2.983 2.965 2.965 0 0 1 2.94-2.983z"/><path d="m138.557 322h150.175a6 6 0 0 0 0-12h-150.175a6 6 0 0 0 0 12z"/><path d="m94.677 331.266a14.984 14.984 0 1 0 -14.94-14.984 14.979 14.979 0 0 0 14.94 14.984zm0-17.968a2.984 2.984 0 1 1 -2.94 2.984 2.966 2.966 0 0 1 2.94-2.982z"/><path d="m138.557 393h150.175a6 6 0 0 0 0-12h-150.175a6 6 0 0 0 0 12z"/><path d="m94.677 401.5a14.984 14.984 0 1 0 -14.94-14.983 14.978 14.978 0 0 0 14.94 14.983zm0-17.967a2.984 2.984 0 1 1 -2.94 2.984 2.965 2.965 0 0 1 2.94-2.98z"/><path d="m66 97.833a6 6 0 0 0 6-6v-4.3a6 6 0 0 0 -12 0v4.3a6 6 0 0 0 6 6z"/><path d="m66 194.833a6 6 0 0 0 6-6v-76a6 6 0 0 0 -12 0v76a6 6 0 0 0 6 6z"/></g></svg>