<svg id="icons" enable-background="new 0 0 64 64" height="512" viewBox="0 0 64 64" width="512" xmlns="http://www.w3.org/2000/svg"><path d="m16.502 46v16h-8c-.56 0-1-.45-1-1v-7c0-4.42 3.57-8 8-8z" fill="#e6e9ed"/><path d="m42.502 46h-6l-7 13-7-13h-6v16h13 13.01v-3-13z" fill="#656d78"/><path d="m36.502 40.27v5.73l-5 1-2-1-2 1-5-1v-5.73c2.09 1.11 4.47 1.73 6.99 1.73 2.53 0 4.92-.63 7.01-1.74z" fill="#f5f7fa"/><path d="m31.502 47 5-1-7 13-7-13 5 1 2-1z" fill="#e6e9ed"/><path d="m14.492 20.27c-.64-.069-1.31-.159-1.99-.27v-2c0-8.84 7.16-16 16-16 6.33 0 11.8 3.68 14.38 9.01l-5.39 6c-4.66-.26-9.74 4.82-23 3.26z" fill="#ffce54"/><path d="m44.492 18v4c-2.76-3.61-4.83-4.87-7-4.99l5.39-6c1.03 2.11 1.61 4.48 1.61 6.99z" fill="#f6bb42"/><path d="m44.492 22v5c0 5.75-3.23 10.75-7.99 13.26-2.09 1.11-4.479 1.74-7.01 1.74-2.521 0-4.9-.62-6.99-1.73-4.76-2.51-8.01-7.51-8.01-13.27v-6.73c13.26 1.561 18.34-3.52 23-3.26 2.17.12 4.24 1.38 7 4.99z" fill="#eac6bb"/><path d="m40.488 18.025v8.975c0 5.75-3.23 10.75-7.99 13.26-1.529.813-3.221 1.364-5.01 1.604.657.087 1.325.136 2.004.136 2.53 0 4.92-.63 7.01-1.74 4.76-2.51 7.99-7.51 7.99-13.26v-5c-1.496-1.957-2.787-3.206-4.004-3.975z" fill="#d3b1a9"/><path d="m29.532 51.001c-.553 0-1.005-.447-1.005-1s.442-1 .994-1h.011c.552 0 1 .447 1 1s-.448 1-1 1z" fill="#fff"/><path d="m28.502 57.143v4.857h1 1v-4.857l-1 1.857z" fill="#545c66"/><path d="m55.498 42.001h-12.986c-.553 0-1 .447-1 1v17.997c0 .553.447 1 1 1h12.986c.553 0 1-.447 1-1v-17.997c0-.553-.447-1-1-1z" fill="#e6e9ed"/><path d="m55.498 41.001h-12.986c-.553 0-1 .447-1 1v17.997c0 .553.447 1 1 1h12.986c.553 0 1-.447 1-1v-17.997c0-.553-.447-1-1-1z" fill="#ccd1d9"/><path d="m55.498 40h-12.986c-.553 0-1 .447-1 1v17.997c0 .553.447 1 1 1h12.986c.553 0 1-.447 1-1v-17.997c0-.553-.447-1-1-1z" fill="#e6e9ed"/><path d="m47.234 48.232h3.536v3.536h-3.536z" fill="#ed5565" transform="matrix(.707 -.707 .707 .707 -21.003 49.294)"/></svg>