<svg id="Capa_1" enable-background="new 0 0 512 512" height="512" viewBox="0 0 512 512" width="512" xmlns="http://www.w3.org/2000/svg"><g><g><path d="m445.911 504.5h-60.61v-250.622c0-5.523 4.477-10 10-10h40.61c5.523 0 10 4.477 10 10z" fill="#aaddb4"/></g><g><path d="m425.707 243.878v260.622h20.203v-250.622c0-5.523-4.477-10-10-10z" fill="#93d3a2"/></g><g><path d="m340.854 504.5h-60.61v-131.423c0-5.523 4.477-10 10-10h40.61c5.523 0 10 4.477 10 10z" fill="#e28086"/></g><g><path d="m320.65 504.5h20.203v-131.423c0-5.523-4.477-10-10-10h-10.203z" fill="#dd636e"/></g><g><path d="m235.797 504.5h-60.61v-192.033c0-5.523 4.477-10 10-10h40.61c5.523 0 10 4.477 10 10z" fill="#ffe07d"/></g><g><path d="m215.593 504.5h20.203v-192.033c0-5.523-4.477-10-10-10h-10.203z" fill="#ffd064"/></g><g><path d="m130.74 504.5h-60.61v-111.22c0-5.523 4.477-10 10-10h40.61c5.523 0 10 4.477 10 10z" fill="#e28086"/></g><g><path d="m110.537 504.5h20.203v-111.22c0-5.523-4.477-10-10-10h-10.203z" fill="#dd636e"/></g><g><g><path d="m70.13 47.907v-40.407h82.935c5.523 0 10 4.477 10 10v20.407c0 5.523-4.477 10-10 10z" fill="#e28086"/></g><g><path d="m70.13 88.313v-40.406h113.24c5.523 0 10 4.477 10 10v20.407c0 5.523-4.477 10-10 10h-113.24z" fill="#ffe07d"/></g><g><path d="m70.13 128.72v-40.407h151.626c5.523 0 10 4.477 10 10v20.407c0 5.523-4.477 10-10 10z" fill="#aaddb4"/></g></g><g><path d="m504.5 497h-489.5v-47.63h16.744c4.142 0 7.5-3.357 7.5-7.5s-3.358-7.5-7.5-7.5h-16.744v-97.128h16.744c4.142 0 7.5-3.357 7.5-7.5s-3.358-7.5-7.5-7.5h-16.744v-97.128h16.744c4.142 0 7.5-3.357 7.5-7.5s-3.358-7.5-7.5-7.5h-16.744v-97.129h16.744c4.142 0 7.5-3.357 7.5-7.5s-3.358-7.5-7.5-7.5h-16.744v-90.485c0-4.143-3.358-7.5-7.5-7.5s-7.5 3.357-7.5 7.5v497c0 4.143 3.358 7.5 7.5 7.5h497c4.142 0 7.5-3.357 7.5-7.5s-3.358-7.5-7.5-7.5z" fill="#665e66"/></g><g><path d="m118.27 296.248c-2.249 0-4.473-1.007-5.95-2.927-2.525-3.283-1.911-7.992 1.372-10.518l70.81-54.471c3.283-2.526 7.991-1.912 10.518 1.371 2.525 3.283 1.911 7.992-1.372 10.518l-70.81 54.471c-1.363 1.049-2.972 1.556-4.568 1.556z" fill="#bed8fb"/></g><g><path d="m297.254 282.101c-1.272 0-2.561-.323-3.742-1.005l-76.511-44.151c-3.588-2.07-4.818-6.657-2.748-10.245 2.07-3.587 6.657-4.819 10.245-2.747l76.511 44.151c3.588 2.07 4.818 6.657 2.748 10.245-1.388 2.406-3.91 3.752-6.503 3.752z" fill="#bed8fb"/></g><g><path d="m319.394 279.729c-1.762 0-3.531-.617-4.956-1.873-3.107-2.739-3.406-7.479-.667-10.586l88.309-100.196c2.739-3.106 7.479-3.405 10.585-.668 3.107 2.739 3.406 7.479.667 10.586l-88.309 100.196c-1.482 1.681-3.55 2.541-5.629 2.541z" fill="#bed8fb"/></g><g><g><g><path d="m329.742 15h-57.579c-4.142 0-7.5-3.357-7.5-7.5s3.358-7.5 7.5-7.5h57.579c4.142 0 7.5 3.357 7.5 7.5s-3.358 7.5-7.5 7.5z" fill="#665e66"/></g></g><g><g><path d="m381.26 15h-19.193c-4.142 0-7.5-3.357-7.5-7.5s3.358-7.5 7.5-7.5h19.193c4.142 0 7.5 3.357 7.5 7.5s-3.358 7.5-7.5 7.5z" fill="#665e66"/></g></g><g><g><path d="m381.26 47.325h-50.508c-4.142 0-7.5-3.357-7.5-7.5s3.358-7.5 7.5-7.5h50.508c4.142 0 7.5 3.357 7.5 7.5s-3.358 7.5-7.5 7.5z" fill="#665e66"/></g></g><g><g><path d="m298.427 47.325h-26.264c-4.142 0-7.5-3.357-7.5-7.5s3.358-7.5 7.5-7.5h26.264c4.142 0 7.5 3.357 7.5 7.5s-3.358 7.5-7.5 7.5z" fill="#665e66"/></g></g><g><g><path d="m381.26 79.65h-109.097c-4.142 0-7.5-3.357-7.5-7.5s3.358-7.5 7.5-7.5h109.097c4.142 0 7.5 3.357 7.5 7.5s-3.358 7.5-7.5 7.5z" fill="#665e66"/></g></g></g><g><g><path d="m70.13 136.22c-4.142 0-7.5-3.357-7.5-7.5v-121.22c0-4.143 3.358-7.5 7.5-7.5s7.5 3.357 7.5 7.5v121.22c0 4.142-3.358 7.5-7.5 7.5z" fill="#665e66"/></g></g><g><circle cx="415.606" cy="163.065" fill="#cbe2ff" r="30.305"/></g><g><circle cx="310.549" cy="282.264" fill="#cbe2ff" r="30.305"/></g><g><circle cx="205.492" cy="221.654" fill="#cbe2ff" r="30.305"/></g><g><circle cx="100.435" cy="302.467" fill="#cbe2ff" r="30.305"/></g></g></svg>